PathFileType	4	(X/Y/Z)	/home/abdul/Desktop/myosuite/custom_workspace/IK/output/S14_12_2.trc
DataRate	CameraRate	NumFrames	NumMarkers	Units	OrigDataRate	OrigDataStartFrame	OrigNumFrames
200.0	200.0	67	3	mm	200.0	1594	2124
Frame#	Time	V_Shoulder			V_Elbow			V_Wrist		
		X1	Y1	Z1	X2	Y2	Z2	X3	Y3	Z3

1594	7.965	-162.25084213257915	662.7765026453441	311.4831425485299	-171.51932847521704	453.5590037953418	41.78572638757999	-52.378150402281676	242.7278520581319	102.26330777570647
1595	7.97	-162.21495539395093	662.7136373082238	311.50509161426703	-171.3635972110717	453.48120552072123	41.83884242975028	-52.32927771683179	242.44131257082336	101.85021501851935
1596	7.975	-162.17898086127914	662.6513005782531	311.5271194366	-171.21057318276462	453.40539980799304	41.891700001570065	-52.28295352244156	242.15836079348682	101.43819194659892
1597	7.98	-162.14292583984604	662.5894918571593	311.5492150475157	-171.06026918388199	453.33168518348225	41.944162254523995	-52.2391689482948	241.87904917151585	101.02700372121406
1598	7.985	-162.10679838526806	662.5282108423168	311.57136725117545	-170.91269624631929	453.26015597038713	41.99609644429654	-52.19791428423823	241.60342948273214	100.6164271673418
1599	7.99	-162.07060728602357	662.4674575295293	311.59356465175455	-170.7678637367591	453.1909020834653	42.04737430885094	-52.15917921526645	241.3315524493553	100.20625111583624
1600	7.995	-162.0343620444404	662.4072322158218	311.61579568189717	-170.62577945533832	453.1240088415135	42.09787242695494	-52.1229530562555	241.06346735884543	99.7962766962163
1601	8.0	-161.99807285622396	662.3475355021732	311.63804863165296	-170.486449735797	453.05955679814195	42.14747255578989	-52.0892249854564	240.7992216955452	99.3863175798757
1602	8.005	-161.96175058860894	662.2883682961184	311.6603116777637	-170.34987954640093	452.9976215912625	42.19606194637842	-52.05798427525627	240.53886078498618	98.97620017374672
1603	8.01	-161.92540675722003	662.2297318141503	311.6825729131649	-170.21607259093165	452.9382738116265	42.24353363566958	-52.0292205187196	240.282427452648	98.56576376467518
1604	8.015	-161.88905350172902	662.1716275838529	311.70482037657445	-170.08503140904395	452.881578890666	42.28978671422981	-52.00292385043453	240.02996169887467	98.15486061498589
1605	8.02	-161.85270356039737	662.1140574456982	311.7270420820351	-169.95675747530055	452.82759700780275	42.33472656860164	-51.97908516020985	239.78150039155668	97.74335600993555
1606	8.025	-161.81637024359404	662.0570235544443	311.7492260482864	-169.8312512962066	452.7763830173055	42.3782650975098	-51.95769629819686	239.53707697808193	97.3311282579613
1607	8.03	-161.78006740637952	662.0005283800689	311.7713603278401	-169.7085125045836	452.7279863946864	42.420320901215916	-51.9387502700466	239.29672121794687	96.91806864483789
1608	8.035	-161.7438094202471	661.9445747081803	311.7934330356384	-169.588539950643	452.6824512025414	42.46081944344672	-51.92224142075698	239.06045893729507	96.50408134305442
1609	8.04	-161.70761114411297	661.8891656398505	311.81543237717875	-169.47133178914248	452.6398160756526	42.49969318544713	-51.9081656059155	238.82831180652494	96.08908327790867
1610	8.045	-161.6714878946448	661.834304590812	311.83734667599225	-169.35688556203604	452.60011422508353	42.536881691837685	-51.896520349101536	238.60029714197145	95.67300395199688
1611	8.05	-161.6354554160197	661.7799952899746	311.85916440036834	-169.24519827605732	452.56337346091505	42.57233170808448	-51.887304984277606	238.37642773252784	95.25578522994498
1612	8.055	-161.5995298491999	661.7262417772089	311.8808741892234	-169.1362664747106	452.5296162331848	42.605997209519245	-51.880520782070406	238.15671169192905	94.8373810853843
1613	8.06	-161.56372770081362	661.6730484003593	311.90246487701825	-169.030086304178	452.4988596905147	42.637839421976274	-51.87617105891996	237.94115233727143	94.41775731232016
1614	8.065	-161.5280658117272	661.6204198114466	311.9239255176333	-168.92665357269138	452.47111575582966	42.667826814240684	-51.874261268158875	237.72974809419227	93.99689120317463
1615	8.07	-161.49256132539116	661.5683609620241	311.94524540711865	-168.8259638029574	452.44639121849923	42.69593506262954	-51.874799072171925	237.5224924289824	93.57477119590365
1616	8.075	-161.45723165604196	661.5168770976605	311.96641410524325	-168.7280122772683	452.4246878421586	42.72214698815122	-51.87779439487963	237.31937380775258	93.15139649269472
1617	8.08	-161.42209445683778	661.4659737515232	311.9874214557722	-168.6327940749761	452.4060024874002	42.74645246681061	-51.88325945388728	237.12037568262338	92.72677665284223
1618	8.085	-161.3871675880035	661.4156567370427	312.00825760541255	-168.54030410205422	452.3903272484628	42.76884831374528	-51.89120877174206	236.92547650475694	92.30093116247444
1619	8.09	-161.35246908505766	661.3659321396424	312.02891302137124	-168.4505371125216	452.377649602986	42.78933814199294	-51.90165916584617	236.73464976390335	91.87388898386746
1620	8.095	-161.31801712718962	661.3168063075235	312.04937850748115	-168.36348772155156	452.367952573843	42.80793219679937	-51.91462971668131	236.5478640539871	91.44568808712768
1621	8.1	-161.283830005853	661.2682858415016	312.0696452188543	-168.27915041014268	452.361214902017	42.824647166481654	-51.930141714109965	236.36508316411974	91.01637496705484
1622	8.105	-161.24992609363574	661.2203775838932	312.08970467503366	-168.1975195212772	452.35741122944285	42.83950597096019	-51.94821858163099	236.18626619428758	90.58600414801296
1623	8.11	-161.21632381346572	661.1730886064579	312.10954877161936	-168.11858924755003	452.35651229069754	42.852537529166455	-51.96888577858026	236.0113676948326	90.15463767963585
1624	8.115	-161.18304160820443	661.1264261974071	312.12916979035714	-168.0423536103007	452.35848511239215	42.863776506620404	-51.99217068038126	235.84033782871975	89.72234462617766
1625	8.12	-161.15009791067817	661.0803978474955	312.14856040768035	-167.96880643033705	452.36329321909324	42.87326304455115	-52.01810243706504	235.67312255546497	89.28920055228672
1626	8.125	-161.11751111419292	661.0350112352148	312.167713701708	-167.89794129039177	452.37089684457965	42.88104247200736	-52.0467118103935	235.50966383548783	88.85528700793512
1627	8.13	-161.0852995435724	660.9902742111158	312.18662315770945	-167.82975148950644	452.38125314723254	42.88716500246909	-52.07803099003375	235.34989985354935	88.4206910151732
1628	8.135	-161.0534814267567	660.9461947812903	312.2052826720501	-167.7642299895896	452.3943164283452	42.89168541653012	-52.112093389344246	235.1937652598392	87.98550455930263
1629	8.14	-161.02207486699368	660.9027810900478	312.2236865546447	-167.70136935444867	452.41003835214565	42.89466273226882	-52.148933421444674	235.0411914271922	87.54982408697052
1630	8.145	-160.99109781565073	660.8600414018271	312.24182952995005	-167.64116168164463	452.42836816632826	42.89615986496686	-52.18858625635136	234.89210672283417	87.11375001358311
1631	8.15	-160.96056804567093	660.8179840823876	312.25970673653404	-167.5835985275695	452.4492529219054	42.896243277867356	-52.23108756006697	234.74643679299197	86.67738624231981
1632	8.155	-160.930503125693	660.7766175793298	312.2773137252691	-167.52867082619315	452.47263769121093	42.89498262568775	-52.276473216618236	234.60410485864085	86.24083969689966
1633	8.16	-160.9009203948507	660.7359504019988	312.29464645620095	-167.47636880197325	452.4984657829146	42.892450392618215	-52.324779034136455	234.46503202061723	85.80421987011054
1634	8.165	-160.8718369382626	660.695991100828	312.3117012941504	-167.42668187746628	452.5266789529376	42.888721526542355	-52.37604043617414	234.3291375722841	85.36763838996079
1635	8.17	-160.84326956322062	660.656748246183	312.32847500311334	-167.379598576219	452.5572176102028	42.88387307121508	-52.430292139545166	234.19633931790975	84.9312086051507
1636	8.175	-160.81523477608093	660.6182304067747	312.344964739528	-167.33510642156142	452.59002101619467	42.87798379812118	-52.48756782006629	234.0665538949013	84.49504519139253
1637	8.18	-160.7877487598571	660.580446127706	312.3611680444831	-167.29319183195767	452.6250274773575	42.871133839719064	-52.54789976766343	233.93969709802826	84.05926377992941
1638	8.185	-160.76082735251364	660.5434039082263	312.3770828349473	-167.2538400136069	452.66217452941703	42.863404325745684	-52.6113185323874	233.81568420377386	83.62398060941989
1639	8.19	-160.73448602595295	660.5071121792677	312.39270739410125	-167.2170348510184	452.7013991127733	42.854877024222795	-52.67785256295936	233.69443029296428	83.18931220216587
1640	8.195	-160.7087398656872	660.47157928084	312.40804036085996	-167.1827587963137	452.7426377381766	42.845633988760504	-52.74752783953712	233.57585056985096	82.75537506546772
1641	8.2	-160.6836035511832	660.4368134393638	312.4230807186746	-167.15099275803263	452.7858266419747	42.8357572137019	-52.8203675024581	233.4598606758537	82.32228541869532
1642	8.205	-160.65909133686674	660.4028227450232	312.4378277837063	-167.12171599024572	452.83090193029074	42.82532829859329	-52.896391478773396	233.34637699621697	81.8901589464656
1643	8.21	-160.63521703376895	660.3696151292219	312.45228119246696	-167.0949059827912	452.8777997115726	42.81442812339805	-52.975616108440015	233.23531695788392	81.45911057812003
1644	8.215	-160.61199399179802	660.3371983422262	312.46644088902156	-167.0705383534717	452.926456217038	42.80313653579907	-53.05805377208397	233.1265993169577	81.02925429349904
1645	8.22	-160.58943508261575	660.3055799310804	312.48030711185044	-167.04858674305729	452.9768079086235	42.79153205185495	-53.14371252228613	233.02014443418938	80.6007029548166
1646	8.225	-160.56755268309854	660.2747672178792	312.4938803804683	-167.02902271394817	453.0287915741351	42.77969157119007	-53.232595720373844	232.915874537015	80.17356816424908
1647	8.23	-160.5463586593602	660.2447672784884	312.50716148189787	-167.0118156533564	453.082344409386	42.76769010780794	-53.32470168072586	232.81371396675223	79.74796014666771
1648	8.235	-160.52586435131497	660.2155869217926	312.52015145709584	-166.99693268186343	453.13740408720184	42.75560053752156	-53.42002332461391	232.71358940966607	79.32398765676673
1649	8.24	-160.50608055775652	660.1872326695625	312.5328515874262	-166.98433856820753	453.19390881326103	42.74349336289497	-53.51854784561269	232.61543011071655	78.9017579096697
1650	8.245	-160.48701752193077	660.159710737024	312.5452633812761	-166.97399565114645	453.251797368834	42.73143649648662	-53.620256388609334	232.5191680689141	78.48137653393593
1651	8.25	-160.46868491757832	660.133027014214	312.55738856090755	-166.96586376922733	453.31100914057663	42.71949506307861	-53.72512374443457	232.42473821332652	78.06294754573928
1652	8.255	-160.45109183542482	660.1071870482025	312.56922904963443	-166.95990019928007	453.3714841376217	42.70773122146652	-53.83311806211962	232.33207855890447	77.64657334285286
1653	8.26	-160.4342467700961	660.0821960262678	312.5807869594112	-166.95605960442782	453.43316299630453	42.69620400627394	-53.94420058075566	232.24113034142226	77.23235471694764
1654	8.265	-160.41815760743796	660.0580587600961	312.59206457892054	-166.95429399238344	453.495986972946	42.68496919014322	-54.058325382896	232.15183813096343	76.8203908826003
1655	8.27	-160.40283161222064	660.0347796710886	312.6030643622353	-166.954552684771	453.55989792520165	42.674079166541105	-54.1754391713946	232.06414992351642	76.41077952130796
1656	8.275	-160.3882754162091	660.0123627768434	312.61378891813615	-166.95678229817574	453.6248382825661	42.66358285330541	-54.29548107151868	231.9780172103862	76.00361683872427
1657	8.28	-160.37449500658366	659.9908116788848	312.6242410001518	-166.96092673758963	453.69075100670244	42.65352561694619	-54.41838246010704	231.89339502526718	75.5989976332639
1658	8.285	-160.3614957146954	659.9701295517084	312.6344234973916	-166.96692720287373	453.75757954233995	42.64394921760466	-54.54406682346925	231.8102419689659	75.19701537417191
1659	8.29	-160.34928220514482	659.9503191331995	312.6443394262298	-166.97472220881437	453.82526775955205	42.63489177446363	-54.672449645635254	231.72852021190315	74.79776228711962
1660	8.295	-160.33785846517333	659.9313827164876	312.6539919228991	-166.98424761929647	453.89375988829175	42.626387751297415	-54.80343832846821	231.6481954746664	74.40132944537058
